<svg xmlns="http://www.w3.org/2000/svg" width="99" height="117">
  <g fill="none" fill-rule="evenodd" opacity=".32">
    <path fill="#FFF" d="M93.431 61.363h-55.91v31.294a4.27 4.27 0 0 1-4.282 4.275h60.192a4.27 4.27 0 0 0 4.282-4.275V65.635a4.269 4.269 0 0 0-4.282-4.272"/>
    <path stroke="#4550E6" stroke-linejoin="round" stroke-width="1.818" d="M93.431 61.363h-55.91v31.294a4.27 4.27 0 0 1-4.282 4.275h60.192a4.27 4.27 0 0 0 4.282-4.275V65.635a4.269 4.269 0 0 0-4.282-4.272z"/>
    <path fill="#D6DAFF" d="M67.003 87.12V71.173c0-1.352 1.1-2.45 2.457-2.45h17.198a2.455 2.455 0 0 1 2.457 2.45V87.12c0 1.355-1.1 2.451-2.457 2.451H69.46a2.453 2.453 0 0 1-2.457-2.45"/>
    <path stroke="#4550E6" stroke-linejoin="round" stroke-width="1.818" d="M67.003 87.12V71.173c0-1.352 1.1-2.45 2.457-2.45h17.198a2.455 2.455 0 0 1 2.457 2.45V87.12c0 1.355-1.1 2.451-2.457 2.451H69.46a2.453 2.453 0 0 1-2.457-2.45z"/>
    <path fill="#D6DAFF" d="M37.52 68.722v20.849h18.427a2.453 2.453 0 0 0 2.457-2.45V71.172c0-1.352-1.1-2.45-2.457-2.45H37.52z"/>
    <path stroke="#4550E6" stroke-linejoin="round" stroke-width="1.818" d="M37.52 68.722v20.849h18.427a2.453 2.453 0 0 0 2.457-2.45V71.172c0-1.352-1.1-2.45-2.457-2.45H37.52z"/>
    <path fill="#FFF" d="M92.929 58.378a4.267 4.267 0 0 0 1.56-5.845L80.915 29.157a4.27 4.27 0 0 0-5.85-1.557L37.52 49.323v41.11l55.409-32.055z"/>
    <path stroke="#4550E6" stroke-linejoin="round" stroke-width="1.818" d="M92.929 58.378a4.267 4.267 0 0 0 1.56-5.845L80.915 29.157a4.27 4.27 0 0 0-5.85-1.557L37.52 49.323v41.11l55.409-32.055z"/>
    <path fill="#D6DAFF" d="M65.136 63.117l-8.01-13.8a2.451 2.451 0 0 1 .894-3.352l14.88-8.607a2.458 2.458 0 0 1 3.358.893l8.007 13.8a2.45 2.45 0 0 1-.893 3.35l-14.878 8.607a2.46 2.46 0 0 1-3.358-.891"/>
    <path stroke="#4550E6" stroke-linejoin="round" stroke-width="1.818" d="M65.136 63.117l-8.01-13.8a2.451 2.451 0 0 1 .894-3.352l14.88-8.607a2.458 2.458 0 0 1 3.358.893l8.007 13.8a2.45 2.45 0 0 1-.893 3.35l-14.878 8.607a2.46 2.46 0 0 1-3.358-.891z"/>
    <path fill="#D6DAFF" d="M46.331 52.733l-8.81 5.1v18.86l1.042 1.796a2.458 2.458 0 0 0 3.359.894l14.88-8.611a2.45 2.45 0 0 0 .892-3.353L49.69 53.624a2.462 2.462 0 0 0-3.358-.891"/>
    <path stroke="#4550E6" stroke-linejoin="round" stroke-width="1.818" d="M46.331 52.733l-8.81 5.1v18.86l1.042 1.796a2.458 2.458 0 0 0 3.359.894l14.88-8.611a2.45 2.45 0 0 0 .892-3.353L49.69 53.624a2.462 2.462 0 0 0-3.358-.891z"/>
    <path fill="#FFF" d="M72.505 24.367a4.263 4.263 0 0 0-1.562-5.84L47.516 4.999a4.27 4.27 0 0 0-5.85 1.557l-4.144 7.157v71.035l34.983-60.38z"/>
    <path fill="#FFF" d="M37.521 84.531v.217l1.647-2.841z"/>
    <path stroke="#4550E6" stroke-linejoin="round" stroke-width="1.818" d="M72.505 24.367a4.263 4.263 0 0 0-1.562-5.84L47.516 4.999a4.27 4.27 0 0 0-5.85 1.557l-4.144 7.157v71.035l34.983-60.38z"/>
    <path fill="#D6DAFF" d="M37.52 28.408v6.24l13.244 7.647a2.457 2.457 0 0 0 3.356-.894l8.612-14.863a2.45 2.45 0 0 0-.897-3.351l-13.823-7.984a2.46 2.46 0 0 0-3.358.895l-7.133 12.31zM37.52 70.051l9.834-16.975a2.45 2.45 0 0 0-.897-3.349l-8.936-5.162v25.486z"/>
    <path stroke="#4550E6" stroke-linejoin="round" stroke-width="1.818" d="M37.52 70.051l9.834-16.975a2.45 2.45 0 0 0-.897-3.349l-8.936-5.162v25.486zM37.52 28.408v6.24l13.244 7.647a2.457 2.457 0 0 0 3.356-.894l8.612-14.863a2.45 2.45 0 0 0-.897-3.351l-13.823-7.984a2.46 2.46 0 0 0-3.358.895l-7.133 12.31z"/>
    <path fill="#FFF" d="M37.52 92.657a4.27 4.27 0 0 1-4.28 4.275H6.177a4.268 4.268 0 0 1-4.281-4.275V5.536a4.267 4.267 0 0 1 4.281-4.273H33.24a4.269 4.269 0 0 1 4.282 4.273v87.12z"/>
    <path stroke="#4550E6" stroke-linejoin="round" stroke-width="1.818" d="M37.52 92.657a4.27 4.27 0 0 1-4.28 4.275H6.177a4.268 4.268 0 0 1-4.281-4.275V5.536a4.267 4.267 0 0 1 4.281-4.273H33.24a4.269 4.269 0 0 1 4.282 4.273v87.12z"/>
    <path fill="#D6DAFF" d="M27.693 31.927h-15.97a2.457 2.457 0 0 1-2.456-2.453V12.302c0-1.356 1.1-2.455 2.457-2.455h15.97a2.456 2.456 0 0 1 2.456 2.455v17.172c0 1.352-1.1 2.453-2.457 2.453"/>
    <path stroke="#4550E6" stroke-linejoin="round" stroke-width="1.818" d="M27.693 31.927h-15.97a2.457 2.457 0 0 1-2.456-2.453V12.302c0-1.356 1.1-2.455 2.457-2.455h15.97a2.456 2.456 0 0 1 2.456 2.455v17.172c0 1.352-1.1 2.453-2.457 2.453z"/>
    <path fill="#D6DAFF" d="M27.693 62.59h-15.97a2.457 2.457 0 0 1-2.456-2.453V42.965c0-1.356 1.1-2.455 2.457-2.455h15.97a2.456 2.456 0 0 1 2.456 2.455v17.172c0 1.352-1.1 2.453-2.457 2.453"/>
    <path stroke="#4550E6" stroke-linejoin="round" stroke-width="1.818" d="M27.693 62.59h-15.97a2.457 2.457 0 0 1-2.456-2.453V42.965c0-1.356 1.1-2.455 2.457-2.455h15.97a2.456 2.456 0 0 1 2.456 2.455v17.172c0 1.352-1.1 2.453-2.457 2.453z"/>
    <path fill="#D6DAFF" d="M23.394 84.666c0 2.03-1.651 3.68-3.685 3.68a3.684 3.684 0 0 1-3.685-3.68c0-2.03 1.651-3.68 3.685-3.68a3.684 3.684 0 0 1 3.685 3.68"/>
    <path stroke="#4550E6" stroke-linejoin="round" stroke-width="1.818" d="M23.394 84.666c0 2.03-1.651 3.68-3.685 3.68a3.684 3.684 0 0 1-3.685-3.68c0-2.03 1.651-3.68 3.685-3.68a3.684 3.684 0 0 1 3.685 3.68z"/>
    <path fill="#D6DAFF" d="M98.941 112.648c0 2.035-21.998 3.682-49.136 3.682S.668 114.683.668 112.648c0-2.033 21.999-3.68 49.137-3.68s49.136 1.647 49.136 3.68"/>
  </g>
</svg>