<svg xmlns="http://www.w3.org/2000/svg" width="400" height="314">
  <g fill="none" fill-rule="evenodd">
    <path fill="#F0F2FF" d="M384.09 183.098C384.09 82.106 302.687.241 202.274.241 101.859.24 20.455 82.106 20.455 183.098c0 26.903 5.827 52.425 16.2 75.429H367.89c10.373-23.004 16.2-48.526 16.2-75.429"/>
    <path stroke="#2F2387" stroke-linecap="round" stroke-linejoin="round" stroke-width="4.255" d="M22.727 258.527h354.546M2.273 258.527h11.363M386.364 258.527h11.363"/>
    <path fill="#D6DAFF" d="M283.4 273.909H96.582c-9.036 0-16.363-7.37-16.363-16.458v-124.8c0-9.088 7.327-16.457 16.363-16.457H283.4c9.037 0 16.364 7.37 16.364 16.457v124.8c0 9.088-7.327 16.458-16.364 16.458"/>
    <path fill="#FFF" d="M212.995 116.194H99.035c-10.39 0-18.817 8.476-18.817 18.926v114.61l132.777-133.536z"/>
    <path stroke="#2F2387" stroke-linecap="round" stroke-linejoin="round" stroke-width="4.255" d="M283.4 273.909H96.582c-9.036 0-16.363-7.37-16.363-16.458v-124.8c0-9.088 7.327-16.457 16.363-16.457H283.4c9.037 0 16.364 7.37 16.364 16.457v124.8c0 9.088-7.327 16.458-16.364 16.458z"/>
    <path fill="#FFF" d="M280.946 273.909c10.395 0 18.818-8.476 18.818-18.926v-6.309H80.22v6.309c0 10.45 8.422 18.926 18.818 18.926h181.909z"/>
    <path stroke="#2F2387" stroke-linecap="round" stroke-linejoin="round" stroke-width="4.255" d="M280.946 273.909c10.395 0 18.818-8.476 18.818-18.926v-6.309H80.22v6.309c0 10.45 8.422 18.926 18.818 18.926h181.909z"/>
    <path fill="#FFF" d="M208.809 299.143h-37.636l3.136-25.234h31.364z"/>
    <path stroke="#2F2387" stroke-linecap="round" stroke-linejoin="round" stroke-width="4.255" d="M208.809 299.143h-37.636l3.136-25.234h31.364z"/>
    <path fill="#FFF" d="M230.764 311.76H149.22c0-6.968 5.613-12.618 12.545-12.618h56.455c6.927 0 12.545 5.65 12.545 12.617"/>
    <path stroke="#2F2387" stroke-linecap="round" stroke-linejoin="round" stroke-width="4.255" d="M230.764 311.76H149.22c0-6.968 5.613-12.618 12.545-12.618h56.455c6.927 0 12.545 5.65 12.545 12.617z"/>
    <path fill="#FFF" d="M301.4 213.978H141.31c-6 0-10.91-4.938-10.91-10.972V94.115h181.91v108.891c0 6.034-4.91 10.972-10.91 10.972"/>
    <path stroke="#2F2387" stroke-linecap="round" stroke-linejoin="round" stroke-width="4.255" d="M301.4 213.978H141.31c-6 0-10.91-4.938-10.91-10.972V94.115h181.91v108.891c0 6.034-4.91 10.972-10.91 10.972z"/>
    <path fill="#FFF" d="M312.31 94.114H130.4v-26.88c0-6.034 4.91-10.972 10.91-10.972H301.4c6 0 10.91 4.938 10.91 10.972v26.88z"/>
    <path stroke="#2F2387" stroke-linecap="round" stroke-linejoin="round" stroke-width="4.255" d="M312.31 94.114H130.4v-26.88c0-6.034 4.91-10.972 10.91-10.972H301.4c6 0 10.91 4.938 10.91 10.972v26.88z"/>
    <path fill="#D6DAFF" d="M155.49 75.188c0 3.483-2.808 6.308-6.272 6.308-3.463 0-6.273-2.825-6.273-6.308 0-3.484 2.81-6.309 6.273-6.309 3.464 0 6.273 2.825 6.273 6.309"/>
    <path stroke="#2F2387" stroke-linecap="round" stroke-linejoin="round" stroke-width="4.255" d="M155.49 75.188c0 3.483-2.808 6.308-6.272 6.308-3.463 0-6.273-2.825-6.273-6.308 0-3.484 2.81-6.309 6.273-6.309 3.464 0 6.273 2.825 6.273 6.309z"/>
    <path fill="#D6DAFF" d="M180.582 75.188c0 3.483-2.81 6.308-6.273 6.308-3.464 0-6.273-2.825-6.273-6.308 0-3.484 2.81-6.309 6.273-6.309 3.464 0 6.273 2.825 6.273 6.309"/>
    <path stroke="#2F2387" stroke-linecap="round" stroke-linejoin="round" stroke-width="4.255" d="M180.582 75.188c0 3.483-2.81 6.308-6.273 6.308-3.464 0-6.273-2.825-6.273-6.308 0-3.484 2.81-6.309 6.273-6.309 3.464 0 6.273 2.825 6.273 6.309z"/>
    <path fill="#D6DAFF" d="M205.673 75.188c0 3.483-2.81 6.308-6.273 6.308-3.464 0-6.273-2.825-6.273-6.308 0-3.484 2.81-6.309 6.273-6.309 3.464 0 6.273 2.825 6.273 6.309"/>
    <path stroke="#2F2387" stroke-linecap="round" stroke-linejoin="round" stroke-width="4.255" d="M205.673 75.188c0 3.483-2.81 6.308-6.273 6.308-3.464 0-6.273-2.825-6.273-6.308 0-3.484 2.81-6.309 6.273-6.309 3.464 0 6.273 2.825 6.273 6.309z"/>
    <path fill="#D6DAFF" d="M207.4 157.2h-16c-2.51 0-4.546-2.047-4.546-4.57v-16.092c0-2.523 2.036-4.571 4.546-4.571h16c2.509 0 4.545 2.048 4.545 4.571v16.091c0 2.524-2.036 4.572-4.545 4.572"/>
    <path stroke="#2F2387" stroke-linecap="round" stroke-linejoin="round" stroke-width="4.255" d="M207.4 157.2h-16c-2.51 0-4.546-2.047-4.546-4.57v-16.092c0-2.523 2.036-4.571 4.546-4.571h16c2.509 0 4.545 2.048 4.545 4.571v16.091c0 2.524-2.036 4.572-4.545 4.572z"/>
    <path fill="#D6DAFF" d="M248.173 157.2h-16c-2.509 0-4.545-2.047-4.545-4.57v-16.092c0-2.523 2.036-4.571 4.545-4.571h16c2.51 0 4.546 2.048 4.546 4.571v16.091c0 2.524-2.037 4.572-4.546 4.572"/>
    <path stroke="#2F2387" stroke-linecap="round" stroke-linejoin="round" stroke-width="4.255" d="M248.173 157.2h-16c-2.509 0-4.545-2.047-4.545-4.57v-16.092c0-2.523 2.036-4.571 4.545-4.571h16c2.51 0 4.546 2.048 4.546 4.571v16.091c0 2.524-2.037 4.572-4.546 4.572z"/>
    <path fill="#D6DAFF" d="M288.945 157.2h-16c-2.51 0-4.545-2.047-4.545-4.57v-16.092c0-2.523 2.036-4.571 4.545-4.571h16c2.514 0 4.545 2.048 4.545 4.571v16.091c0 2.524-2.031 4.572-4.545 4.572"/>
    <path stroke="#2F2387" stroke-linecap="round" stroke-linejoin="round" stroke-width="4.255" d="M288.945 157.2h-16c-2.51 0-4.545-2.047-4.545-4.57v-16.092c0-2.523 2.036-4.571 4.545-4.571h16c2.514 0 4.545 2.048 4.545 4.571v16.091c0 2.524-2.031 4.572-4.545 4.572z"/>
    <path fill="#D6DAFF" d="M207.4 195.051h-16c-2.51 0-4.546-2.048-4.546-4.571v-16.091c0-2.524 2.036-4.572 4.546-4.572h16c2.509 0 4.545 2.048 4.545 4.572v16.091c0 2.523-2.036 4.571-4.545 4.571"/>
    <path stroke="#2F2387" stroke-linecap="round" stroke-linejoin="round" stroke-width="4.255" d="M207.4 195.051h-16c-2.51 0-4.546-2.048-4.546-4.571v-16.091c0-2.524 2.036-4.572 4.546-4.572h16c2.509 0 4.545 2.048 4.545 4.572v16.091c0 2.523-2.036 4.571-4.545 4.571zM248.173 195.051h-16c-2.509 0-4.545-2.048-4.545-4.571v-16.091c0-2.524 2.036-4.572 4.545-4.572h16c2.51 0 4.546 2.048 4.546 4.572v16.091c0 2.523-2.037 4.571-4.546 4.571"/>
    <path stroke="#2F2387" stroke-linecap="round" stroke-linejoin="round" stroke-width="4.255" d="M248.173 195.051h-16c-2.509 0-4.545-2.048-4.545-4.571v-16.091c0-2.524 2.036-4.572 4.545-4.572h16c2.51 0 4.546 2.048 4.546 4.572v16.091c0 2.523-2.037 4.571-4.546 4.571z"/>
    <path fill="#D6DAFF" d="M288.945 195.051h-16c-2.51 0-4.545-2.048-4.545-4.571v-16.091c0-2.524 2.036-4.572 4.545-4.572h16c2.514 0 4.545 2.048 4.545 4.572v16.091c0 2.523-2.031 4.571-4.545 4.571"/>
    <path stroke="#2F2387" stroke-linecap="round" stroke-linejoin="round" stroke-width="4.255" d="M288.945 195.051h-16c-2.51 0-4.545-2.048-4.545-4.571v-16.091c0-2.524 2.036-4.572 4.545-4.572h16c2.514 0 4.545 2.048 4.545 4.572v16.091c0 2.523-2.031 4.571-4.545 4.571z"/>
    <path fill="#D6DAFF" d="M169.764 119.348h-16c-2.509 0-4.545-2.048-4.545-4.571v-3.475c0-2.523 2.036-4.571 4.545-4.571h16c2.51 0 4.546 2.048 4.546 4.571v3.475c0 2.523-2.037 4.571-4.546 4.571"/>
    <path stroke="#2F2387" stroke-linecap="round" stroke-linejoin="round" stroke-width="4.255" d="M169.764 119.348h-16c-2.509 0-4.545-2.048-4.545-4.571v-3.475c0-2.523 2.036-4.571 4.545-4.571h16c2.51 0 4.546 2.048 4.546 4.571v3.475c0 2.523-2.037 4.571-4.546 4.571z"/>
    <path fill="#D6DAFF" d="M288.945 119.348H191.4c-2.51 0-4.546-2.048-4.546-4.571v-3.475c0-2.523 2.036-4.571 4.546-4.571h97.545c2.514 0 4.545 2.048 4.545 4.571v3.475c0 2.523-2.031 4.571-4.545 4.571"/>
    <path stroke="#2F2387" stroke-linecap="round" stroke-linejoin="round" stroke-width="4.255" d="M288.945 119.348H191.4c-2.51 0-4.546-2.048-4.546-4.571v-3.475c0-2.523 2.036-4.571 4.546-4.571h97.545c2.514 0 4.545 2.048 4.545 4.571v3.475c0 2.523-2.031 4.571-4.545 4.571zM149.219 131.967h25.09M149.219 144.582h25.09M149.219 157.2h25.09M149.219 169.817h25.09M149.219 182.435h25.09M149.219 195.051H164.9"/>
    <path fill="#FFF" d="M353.107 264.094c-.909 3.346-2.736 3.465-4.063.265l-20.573-49.655c-1.327-3.205.195-4.731 3.377-3.397l49.373 20.69c3.186 1.336 3.068 3.169-.264 4.088l-15.832 4.338c-3.327.914-6.795 4.402-7.7 7.748l-4.318 15.923z"/>
    <path stroke="#2F2387" stroke-linecap="round" stroke-linejoin="round" stroke-width="4.255" d="M353.107 264.094c-.909 3.346-2.736 3.465-4.063.265l-20.573-49.655c-1.327-3.205.195-4.731 3.377-3.397l49.373 20.69c3.186 1.336 3.068 3.169-.264 4.088l-15.832 4.338c-3.327.914-6.795 4.402-7.7 7.748l-4.318 15.923zM192.605 261.292a2.622 2.622 0 0 1-2.614 2.629 2.622 2.622 0 0 1-2.614-2.629 2.622 2.622 0 0 1 2.614-2.628 2.622 2.622 0 0 1 2.614 2.628z"/>
  </g>
</svg>