<svg xmlns="http://www.w3.org/2000/svg" width="280" height="218">
  <g fill="none" fill-rule="evenodd">
    <path fill="#F0F2FF" d="M268.864 128.561C268.864 57.74 211.88.326 141.59.326 71.3.326 14.318 57.74 14.318 128.56c0 18.87 4.08 36.768 11.34 52.897h231.866c7.26-16.129 11.34-34.027 11.34-52.897"/>
    <path stroke="#2F2387" stroke-linecap="round" stroke-linejoin="round" stroke-width="2.979" d="M15.91 181.458h248.18M1.59 181.458h7.955M270.455 181.458h7.954"/>
    <path fill="#F0F2FF" d="M219.33 211.588c0 3.363-35.14 6.085-78.487 6.085-43.349 0-78.489-2.722-78.489-6.085 0-3.36 35.14-6.081 78.49-6.081 43.345 0 78.485 2.721 78.485 6.081"/>
    <path fill="#FFF" d="M227.38 203.48c0 2.237-1.8 4.055-4.025 4.055H121.063c-2.224 0-4.025-1.818-4.025-4.055V61.54c0-2.242 1.801-4.056 4.025-4.056h84.525c1.066 0 2.09.43 2.845 1.186L226.2 76.572a4.067 4.067 0 0 1 1.18 2.869V203.48z"/>
    <path stroke="#2F2387" stroke-linejoin="round" stroke-width="2.979" d="M227.38 203.48c0 2.237-1.8 4.055-4.025 4.055H121.063c-2.224 0-4.025-1.818-4.025-4.055V61.54c0-2.242 1.801-4.056 4.025-4.056h84.525c1.066 0 2.09.43 2.845 1.186L226.2 76.572a4.067 4.067 0 0 1 1.18 2.869V203.48z"/>
    <path stroke="#2F2387" stroke-width="2.979" d="M217.662 171.036c0 11.198-9.01 20.274-20.125 20.274-11.114 0-20.125-9.076-20.125-20.274s9.011-20.277 20.125-20.277c11.115 0 20.125 9.079 20.125 20.277z"/>
    <path stroke="#2F2387" stroke-linecap="round" stroke-linejoin="round" stroke-width="2.979" d="M187.476 171.036l8.05 8.107 13.08-15.205M143.199 106.148h62.39M148.893 93.982h26.737M143.199 118.314h62.39M143.199 130.48h62.39"/>
    <path fill="#D6DAFF" d="M207.255 74.074c0 2.035 1.638 3.683 3.659 3.683h16.074c-.197-.426-.445-.84-.786-1.186l-17.767-17.902a4.07 4.07 0 0 0-1.18-.792v16.197z"/>
    <path stroke="#2F2387" stroke-linejoin="round" stroke-width="2.979" d="M207.255 74.074c0 2.035 1.638 3.683 3.659 3.683h16.074c-.197-.426-.445-.84-.786-1.186l-17.767-17.902a4.07 4.07 0 0 0-1.18-.792v16.197z"/>
    <path fill="#FFF" d="M167.849 195.368H49.437c-1.76 0-3.182-1.436-3.182-3.206v-12.356c0-7.085 5.699-12.823 12.728-12.823h99.32c7.029 0 12.727 5.738 12.727 12.823v12.356c0 1.77-1.425 3.206-3.181 3.206M127.487 114.26H89.8c-.91 0-1.773-.193-2.575-.494 1.967 4.135 7.331 18.584 7.331 53.214h28.175c0-34.63 5.362-49.079 7.334-53.214-.805.301-1.667.494-2.577.494"/>
    <path fill="#D6DAFF" d="M161.802 205.014a3.657 3.657 0 0 1-3.471 2.52H58.956a3.657 3.657 0 0 1-3.471-2.52l-3.191-9.647h112.7l-3.192 9.647z"/>
    <path stroke="#2F2387" stroke-linejoin="round" stroke-width="2.979" d="M167.849 195.368H49.437c-1.76 0-3.182-1.436-3.182-3.206v-12.356c0-7.085 5.699-12.823 12.728-12.823h99.32c7.029 0 12.727 5.738 12.727 12.823v12.356c0 1.77-1.425 3.206-3.181 3.206zM127.487 114.26H89.8c-.91 0-1.773-.193-2.575-.494 1.967 4.135 7.331 18.584 7.331 53.214h28.175c0-34.63 5.362-49.079 7.334-53.214-.805.301-1.667.494-2.577.494z"/>
    <path stroke="#2F2387" stroke-linejoin="round" stroke-width="2.979" d="M161.802 205.014a3.657 3.657 0 0 1-3.471 2.52H58.956a3.657 3.657 0 0 1-3.471-2.52l-3.191-9.647h112.7l-3.192 9.647zM94.316 154.812h28.652"/>
    <path fill="#FFF" d="M128.443 114.26H88.845c-3.516 0-6.364-2.873-6.364-6.412v-19.62c0-3.543 2.848-6.412 6.364-6.412h39.598c3.512 0 6.363 2.87 6.363 6.412v19.62c0 3.54-2.85 6.412-6.363 6.412"/>
    <path stroke="#2F2387" stroke-linejoin="round" stroke-width="2.979" d="M128.443 114.26H88.845c-3.516 0-6.364-2.873-6.364-6.412v-19.62c0-3.543 2.848-6.412 6.364-6.412h39.598c3.512 0 6.363 2.87 6.363 6.412v19.62c0 3.54-2.85 6.412-6.363 6.412z"/>
  </g>
</svg>