<?xml version="1.0" encoding="UTF-8"?>
<svg width="142px" height="128px" viewBox="0 0 142 128" version="1.1" xmlns="http://www.w3.org/2000/svg" xmlns:xlink="http://www.w3.org/1999/xlink">
    <!-- Generator: sketchtool 54.1 (76490) - https://sketchapp.com -->
    <title>61B78609-D39C-454A-9473-2695F68F0EA4</title>
    <desc>Created with sketchtool.</desc>
    <g id="Page-1" stroke="none" stroke-width="1" fill="none" fill-rule="evenodd">
        <g id="Desktop-HD-Copy-2" transform="translate(-864.000000, -2857.000000)">
            <g id="Group-22" transform="translate(708.000000, 2858.000000)">
                <g id="write-paper-ink" transform="translate(157.000000, 0.000000)">
                    <path d="M13.125,122.932426 C13.125,125.178378 28.934472,127 48.4375,127 C67.940528,127 83.75,125.178378 83.75,122.932426 C83.75,120.686474 67.940528,118.866995 48.4375,118.866995 C28.934472,118.866995 13.125,120.686474 13.125,122.932426" id="Fill-3" fill="#D6DAFF"></path>
                    <path d="M71.875,121.369458 L71.875,121.369458 C65.7885375,121.369458 60.8522727,116.440694 60.8522727,110.358621 L60.8522727,49.7990148 C60.8522727,43.7191176 55.9181863,38.7881773 49.8295455,38.7881773 L11.25,38.7881773 C17.3386409,38.7881773 22.2727273,43.7191176 22.2727273,49.7990148 L22.2727273,110.358621 C22.2727273,116.440694 27.2089921,121.369458 33.2954545,121.369458 L71.875,121.369458 Z" id="Fill-5" fill="#FFFFFF"></path>
                    <path d="M21.875,48.8930201 C21.875,43.3133895 16.9769022,38.7881773 10.9353384,38.7881773 C4.89593626,38.7881773 0,43.3133895 0,48.8930201 L0,60.4916222 C0,61.75972 1.11320405,62.7881773 2.48579545,62.7881773 L21.875,62.7881773 L21.875,48.8930201 Z" id="Fill-7" fill="#D6DAFF"></path>
                    <path d="M21.875,48.8930201 C21.875,43.3133895 16.9769022,38.7881773 10.9353384,38.7881773 C4.89593626,38.7881773 0,43.3133895 0,48.8930201 L0,60.4916222 C0,61.75972 1.11320405,62.7881773 2.48579545,62.7881773 L21.875,62.7881773 L21.875,48.8930201 Z" id="Stroke-9" stroke="#2F2387" stroke-width="0.625" stroke-linejoin="round"></path>
                    <path d="M71.875,121.369458 L71.875,121.369458 C65.7885375,121.369458 60.8522727,116.440694 60.8522727,110.358621 L60.8522727,49.7990148 C60.8522727,43.7191176 55.9181863,38.7881773 49.8295455,38.7881773 L11.25,38.7881773 C17.3386409,38.7881773 22.2727273,43.7191176 22.2727273,49.7990148 L22.2727273,110.358621 C22.2727273,116.440694 27.2089921,121.369458 33.2954545,121.369458 L71.875,121.369458 Z" id="Stroke-11" stroke="#2F2387" stroke-width="0.625" stroke-linejoin="round"></path>
                    <path d="M72.1517279,121.369458 C78.5657489,121.369458 83.6960983,115.875847 83.0737778,109.345828 C82.5295184,103.653157 77.4121792,99.4729064 71.6811929,99.4729064 L41.128943,99.4729064 C39.9168275,99.4729064 39.4462924,100.985326 40.4112145,101.718818 C43.0305983,103.720232 44.7219223,106.872729 44.7219223,110.421182 C44.7219223,116.468698 39.8105776,121.369458 33.75,121.369458 L72.1517279,121.369458 Z" id="Fill-13" fill="#FFFFFF"></path>
                    <path d="M72.1517279,121.369458 C78.5657489,121.369458 83.6960983,115.875847 83.0737778,109.345828 C82.5295184,103.653157 77.4121792,99.4729064 71.6811929,99.4729064 L41.128943,99.4729064 C39.9168275,99.4729064 39.4462924,100.985326 40.4112145,101.718818 C43.0305983,103.720232 44.7219223,106.872729 44.7219223,110.421182 C44.7219223,116.468698 39.8105776,121.369458 33.75,121.369458 L72.1517279,121.369458 Z" id="Stroke-15" stroke="#2F2387" stroke-width="0.625" stroke-linejoin="round"></path>
                    <path d="M52.5,55.679803 L31.875,55.679803" id="Stroke-17" stroke="#2F2387" stroke-width="0.625" stroke-linecap="round" stroke-linejoin="round"></path>
                    <path d="M52.5,63.1871921 L31.875,63.1871921" id="Stroke-19" stroke="#2F2387" stroke-width="0.625" stroke-linecap="round" stroke-linejoin="round"></path>
                    <path d="M48.75,71.9458128 L38.125,71.9458128" id="Stroke-21" stroke="#2F2387" stroke-width="0.625" stroke-linecap="round" stroke-linejoin="round"></path>
                    <path d="M49.375,80.0788177 L41.25,80.0788177" id="Stroke-23" stroke="#2F2387" stroke-width="0.625" stroke-linecap="round" stroke-linejoin="round"></path>
                    <polygon id="Fill-25" fill="#D6DAFF" points="84.9524316 66.3152709 73.125 54.4772047 82.9800912 40.6650246 98.75 56.4491129"></polygon>
                    <path d="M98.5905518,56.9310345 L83.125,41.2128709 L126.84825,2.01850091 C129.97983,-0.797413816 134.725827,-0.650248226 137.682349,2.35456561 C140.684257,5.40330948 140.781511,10.316883 137.907114,13.4886309 L98.5905518,56.9310345 Z" id="Fill-27" fill="#D6DAFF"></path>
                    <path d="M70.6821029,81.5758097 C69.2921164,83.4316745 67.1128084,84.5430227 64.796887,84.5755818 C61.1495278,84.6255056 55.5136854,85.1421089 51.875,87.5862069 C54.3123554,83.9178893 54.8306187,78.2916887 54.8826619,74.6494183 C54.9151889,72.3290447 56.0232749,70.1541014 57.877313,68.7605748 L70.300453,59.4334975 L80,69.1404302 L70.6821029,81.5758097 Z" id="Fill-29" fill="#FFFFFF"></path>
                    <polygon id="Fill-31" fill="#FFFFFF" points="80.2090475 68.817734 70.625 59.224244 73.5025712 54.4285714 85 65.9394725"></polygon>
                    <polygon id="Stroke-33" stroke="#2F2387" stroke-width="0.625" stroke-linejoin="round" points="80.2090475 68.817734 70.625 59.224244 73.5025712 54.4285714 85 65.9394725"></polygon>
                    <path d="M70.6821029,81.5758097 C69.2921164,83.4316745 67.1128084,84.5430227 64.796887,84.5755818 C61.1495278,84.6255056 55.5136854,85.1421089 51.875,87.5862069 C54.3123554,83.9178893 54.8306187,78.2916887 54.8826619,74.6494183 C54.9151889,72.3290447 56.0232749,70.1541014 57.877313,68.7605748 L70.300453,59.4334975 L80,69.1404302 L70.6821029,81.5758097 Z" id="Stroke-35" stroke="#2F2387" stroke-width="0.625" stroke-linejoin="round"></path>
                    <polygon id="Stroke-37" stroke="#2F2387" stroke-width="0.625" stroke-linejoin="round" points="84.9524316 66.3152709 73.125 54.4772047 82.9800912 40.6650246 98.75 56.4491129"></polygon>
                    <path d="M66.0512599,77.3774188 C64.9529397,78.476821 63.1720603,78.476821 62.0737401,77.3774188 C60.97542,76.2780165 60.97542,74.4953825 62.0737401,73.3959803 C63.1720603,72.296578 64.9529397,72.296578 66.0512599,73.3959803 C67.14958,74.4953825 67.14958,76.2780165 66.0512599,77.3774188" id="Fill-39" fill="#D6DAFF"></path>
                    <path d="M66.0512599,77.3774188 C64.9529397,78.476821 63.1720603,78.476821 62.0737401,77.3774188 C60.97542,76.2780165 60.97542,74.4953825 62.0737401,73.3959803 C63.1720603,72.296578 64.9529397,72.296578 66.0512599,73.3959803 C67.14958,74.4953825 67.14958,76.2780165 66.0512599,77.3774188 Z" id="Stroke-41" stroke="#2F2387" stroke-width="0.625" stroke-linejoin="round"></path>
                    <path d="M61.875,77.5763547 L52.5,86.9605911" id="Stroke-43" stroke="#2F2387" stroke-width="0.625" stroke-linejoin="round"></path>
                    <path d="M135.300874,16.8916256 L137.099406,18.6682102 C139.229597,20.7702088 139.307504,24.1562735 137.277478,26.3528181 L120,45.044335" id="Stroke-45" stroke="#2F2387" stroke-width="0.625" stroke-linecap="round" stroke-linejoin="round"></path>
                    <polygon id="Fill-47" fill="#FFFFFF" points="87.2774098 37.5369458 83.125 41.2168386 98.7560598 56.9310345 102.5 52.8383614"></polygon>
                    <polygon id="Stroke-49" stroke="#2F2387" stroke-width="0.625" stroke-linejoin="round" points="87.2774098 37.5369458 83.125 41.2168386 98.7560598 56.9310345 102.5 52.8383614"></polygon>
                    <path d="M98.5905518,56.9310345 L83.125,41.2128709 L126.84825,2.01850091 C129.97983,-0.797413816 134.725827,-0.650248226 137.682349,2.35456561 C140.684257,5.40330948 140.781511,10.316883 137.907114,13.4886309 L98.5905518,56.9310345 Z" id="Stroke-51" stroke="#2F2387" stroke-width="0.625" stroke-linejoin="round"></path>
                </g>
            </g>
        </g>
    </g>
</svg>