<?xml version="1.0" encoding="UTF-8"?>
<svg width="16px" height="14px" viewBox="0 0 16 14" version="1.1" xmlns="http://www.w3.org/2000/svg" xmlns:xlink="http://www.w3.org/1999/xlink">
    <!-- Generator: sketchtool 54.1 (76490) - https://sketchapp.com -->
    <title>1935F09A-98D7-4F11-919A-BECE4E4537E0</title>
    <desc>Created with sketchtool.</desc>
    <g id="Page-1" stroke="none" stroke-width="1" fill="none" fill-rule="evenodd">
        <g id="Desktop-HD-Copy-2" transform="translate(-320.000000, -550.000000)" fill="#FFFFFF" fill-rule="nonzero">
            <g id="Group-2" transform="translate(92.000000, 527.000000)">
                <path d="M228.933988,29.0609756 L240.829299,29.0609756 L236.353015,24.6219512 C236.159594,24.4369909 236.062885,24.2164647 236.062885,23.9603659 C236.062885,23.704267 236.149232,23.4801839 236.321929,23.2881098 C236.494626,23.0960356 236.705314,23 236.953997,23 C237.202681,23 237.42373,23.085365 237.617151,23.2560976 L243.70987,29.3170732 C243.903291,29.5020334 244,29.7261166 244,29.9893293 C244,30.252542 243.903291,30.4766251 243.70987,30.6615854 L237.575703,36.7439024 C237.396099,36.914635 237.188865,37 236.953997,37 C236.691498,37 236.470449,36.9004075 236.290844,36.7012195 C236.111239,36.5162592 236.024892,36.295733 236.0318,36.0396341 C236.038708,35.7835353 236.131963,35.5630091 236.311568,35.3780488 L240.787852,30.9390244 L228.913265,30.9390244 C228.678397,30.9390244 228.471164,30.8536594 228.291559,30.6829268 C228.111954,30.5121943 228.015245,30.3058955 228.001429,30.0640244 C227.987613,29.7936978 228.073961,29.5589441 228.260473,29.3597561 C228.446986,29.1605681 228.671489,29.0609756 228.933988,29.0609756 Z" id=""></path>
            </g>
        </g>
    </g>
</svg>