<svg xmlns="http://www.w3.org/2000/svg" width="64" height="275">
  <g fill="#D6D2FF" fill-rule="evenodd">
    <ellipse cx="62" cy="272.5" rx="2" ry="2.5"/>
    <ellipse cx="42" cy="272.5" rx="2" ry="2.5"/>
    <ellipse cx="22" cy="272.5" rx="2" ry="2.5"/>
    <ellipse cx="2" cy="272.5" rx="2" ry="2.5"/>
    <ellipse cx="62" cy="247.5" rx="2" ry="2.5"/>
    <ellipse cx="42" cy="247.5" rx="2" ry="2.5"/>
    <ellipse cx="22" cy="247.5" rx="2" ry="2.5"/>
    <ellipse cx="2" cy="247.5" rx="2" ry="2.5"/>
    <ellipse cx="62" cy="223.5" rx="2" ry="2.5"/>
    <ellipse cx="42" cy="223.5" rx="2" ry="2.5"/>
    <ellipse cx="22" cy="223.5" rx="2" ry="2.5"/>
    <ellipse cx="2" cy="223.5" rx="2" ry="2.5"/>
    <ellipse cx="62" cy="198.5" rx="2" ry="2.5"/>
    <ellipse cx="42" cy="198.5" rx="2" ry="2.5"/>
    <ellipse cx="22" cy="198.5" rx="2" ry="2.5"/>
    <ellipse cx="2" cy="198.5" rx="2" ry="2.5"/>
    <ellipse cx="62" cy="174.5" rx="2" ry="2.5"/>
    <ellipse cx="42" cy="174.5" rx="2" ry="2.5"/>
    <ellipse cx="22" cy="174.5" rx="2" ry="2.5"/>
    <ellipse cx="2" cy="174.5" rx="2" ry="2.5"/>
    <ellipse cx="62" cy="149.5" rx="2" ry="2.5"/>
    <ellipse cx="42" cy="149.5" rx="2" ry="2.5"/>
    <ellipse cx="22" cy="149.5" rx="2" ry="2.5"/>
    <ellipse cx="2" cy="149.5" rx="2" ry="2.5"/>
    <ellipse cx="62" cy="125.5" rx="2" ry="2.5"/>
    <ellipse cx="42" cy="125.5" rx="2" ry="2.5"/>
    <ellipse cx="22" cy="125.5" rx="2" ry="2.5"/>
    <ellipse cx="2" cy="125.5" rx="2" ry="2.5"/>
    <ellipse cx="62" cy="100.5" rx="2" ry="2.5"/>
    <ellipse cx="42" cy="100.5" rx="2" ry="2.5"/>
    <ellipse cx="22" cy="100.5" rx="2" ry="2.5"/>
    <ellipse cx="2" cy="100.5" rx="2" ry="2.5"/>
    <ellipse cx="62" cy="76.5" rx="2" ry="2.5"/>
    <ellipse cx="42" cy="76.5" rx="2" ry="2.5"/>
    <ellipse cx="22" cy="76.5" rx="2" ry="2.5"/>
    <ellipse cx="2" cy="76.5" rx="2" ry="2.5"/>
    <ellipse cx="62" cy="51.5" rx="2" ry="2.5"/>
    <ellipse cx="42" cy="51.5" rx="2" ry="2.5"/>
    <ellipse cx="22" cy="51.5" rx="2" ry="2.5"/>
    <ellipse cx="2" cy="51.5" rx="2" ry="2.5"/>
    <ellipse cx="62" cy="27.5" rx="2" ry="2.5"/>
    <ellipse cx="42" cy="27.5" rx="2" ry="2.5"/>
    <ellipse cx="22" cy="27.5" rx="2" ry="2.5"/>
    <ellipse cx="2" cy="27.5" rx="2" ry="2.5"/>
    <ellipse cx="62" cy="2.5" rx="2" ry="2.5"/>
    <ellipse cx="42" cy="2.5" rx="2" ry="2.5"/>
    <ellipse cx="22" cy="2.5" rx="2" ry="2.5"/>
    <ellipse cx="2" cy="2.5" rx="2" ry="2.5"/>
  </g>
</svg>