<?xml version="1.0" encoding="UTF-8"?>
<svg width="32px" height="32px" viewBox="0 0 32 32" version="1.1" xmlns="http://www.w3.org/2000/svg" xmlns:xlink="http://www.w3.org/1999/xlink">
    <!-- Generator: sketchtool 54.1 (76490) - https://sketchapp.com -->
    <title>C155BF02-DCD2-4797-8A83-EB6FC89A90C9</title>
    <desc>Created with sketchtool.</desc>
    <defs>
        <polygon id="path-1" points="0 0 32 0 32 31.9466667 0 31.9466667"></polygon>
    </defs>
    <g id="Page-1" stroke="none" stroke-width="1" fill="none" fill-rule="evenodd" opacity="0.361514137">
        <g id="Desktop-HD-Copy-2" transform="translate(-255.000000, -3576.000000)">
            <g id="In-2C-CMYK-0p5in-TM" style="mix-blend-mode: luminosity;" transform="translate(255.000000, 3576.000000)">
                <g id="Group-3">
                    <mask id="mask-2" fill="white">
                        <use xlink:href="#path-1"></use>
                    </mask>
                    <g id="Clip-2"></g>
                    <path d="M29.6302222,0 L2.36,0 C1.05777778,0 0,1.03288889 0,2.30577778 L0,29.6906667 C0,30.9653333 1.05777778,32 2.36,32 L29.6302222,32 C30.9342222,32 32,30.9653333 32,29.6906667 L32,2.30577778 C32,1.03288889 30.9342222,0 29.6302222,0" id="Fill-1" fill="#0071A1" mask="url(#mask-2)"></path>
                </g>
                <path d="M7.11822222,4.40533333 C8.63733333,4.40533333 9.86844444,5.63911111 9.86844444,7.15644444 C9.86844444,8.67555556 8.63733333,9.90844444 7.11822222,9.90844444 C5.59377778,9.90844444 4.36444444,8.67555556 4.36444444,7.15644444 C4.36444444,5.63911111 5.59377778,4.40533333 7.11822222,4.40533333 L7.11822222,4.40533333 Z M4.74133333,27.2675556 L9.49244444,27.2675556 L9.49244444,11.9973333 L4.74133333,11.9973333 L4.74133333,27.2675556 Z" id="Fill-4" fill="#FFFFFE"></path>
                <path d="M12.4702222,11.9973333 L17.0195556,11.9973333 L17.0195556,14.0835556 L17.0853333,14.0835556 C17.7182222,12.8826667 19.2666667,11.6168889 21.5751111,11.6168889 C26.3777778,11.6168889 27.2657778,14.7786667 27.2657778,18.8915556 L27.2657778,27.2675556 L22.5244444,27.2675556 L22.5244444,19.8417778 C22.5244444,18.0711111 22.4897778,15.7928889 20.0577778,15.7928889 C17.5875556,15.7928889 17.2106667,17.7208889 17.2106667,19.7137778 L17.2106667,27.2675556 L12.4702222,27.2675556 L12.4702222,11.9973333" id="Fill-5" fill="#FFFFFE"></path>
            </g>
        </g>
    </g>
</svg>