<?xml version="1.0" encoding="UTF-8"?>
<svg width="102px" height="128px" viewBox="0 0 102 128" version="1.1" xmlns="http://www.w3.org/2000/svg" xmlns:xlink="http://www.w3.org/1999/xlink">
    <!-- Generator: sketchtool 54.1 (76490) - https://sketchapp.com -->
    <title>58ACEBE7-8B41-4C71-8545-B0B771155EF6</title>
    <desc>Created with sketchtool.</desc>
    <g id="Page-1" stroke="none" stroke-width="1" fill="none" fill-rule="evenodd" opacity="0.32">
        <g id="Desktop-HD-Copy-2" transform="translate(-977.000000, -1371.000000)">
            <g id="phone-new-message" transform="translate(978.000000, 1372.000000)">
                <path d="M88.757682,123.355847 C88.757682,125.223494 76.0130531,126.738156 60.2917663,126.738156 C44.5704796,126.738156 31.8258507,125.223494 31.8258507,123.355847 C31.8258507,121.4882 44.5704796,119.971671 60.2917663,119.971671 C76.0130531,119.971671 88.757682,121.4882 88.757682,123.355847" id="Fill-3" fill="#D6DAFF"></path>
                <path d="M68.650749,109.095054 C67.1494135,111.844231 63.715666,112.850893 60.9805597,111.343701 L36.2438277,97.7061426 C33.5068633,96.1970838 32.5072117,92.7456721 34.0066891,89.9946279 L64.5815352,33.9764221 C66.0810127,31.2272456 69.5166183,30.2224515 72.2517245,31.7296426 L96.9865985,45.3672015 C99.7235629,46.8762603 100.725073,50.3276721 99.2237371,53.0768485 L68.650749,109.095054 Z" id="Fill-5" fill="#FFFFFF"></path>
                <path d="M68.650749,109.095054 C67.1494135,111.844231 63.715666,112.850893 60.9805597,111.343701 L36.2438277,97.7061426 C33.5068633,96.1970838 32.5072117,92.7456721 34.0066891,89.9946279 L64.5815352,33.9764221 C66.0810127,31.2272456 69.5166183,30.2224515 72.2517245,31.7296426 L96.9865985,45.3672015 C99.7235629,46.8762603 100.725073,50.3276721 99.2237371,53.0768485 L68.650749,109.095054 Z" id="Stroke-7" stroke="#4550E6" stroke-width="1.58135191" stroke-linecap="round" stroke-linejoin="round"></path>
                <polygon id="Fill-9" fill="#D6DAFF" points="71.3680177 104.115907 36.7258158 85.0154809 61.8620369 38.9574368 96.5060969 58.0559956"></polygon>
                <polygon id="Fill-11" fill="#FFFFFF" points="39.4919522 79.9431382 95.1435606 57.3053882 61.8633376 38.9576235"></polygon>
                <polygon id="Stroke-13" stroke="#4550E6" stroke-width="1.58135191" stroke-linecap="round" stroke-linejoin="round" points="71.3680177 104.115907 36.7258158 85.0154809 61.8620369 38.9574368 96.5060969 58.0559956"></polygon>
                <path d="M86.8722796,46.2679676 L88.1116247,46.9515265" id="Stroke-15" stroke="#4550E6" stroke-width="1.58135191" stroke-linecap="round" stroke-linejoin="round"></path>
                <path d="M75.2412031,39.9136721 L83.2105447,44.4240397" id="Stroke-17" stroke="#4550E6" stroke-width="1.58135191" stroke-linecap="round" stroke-linejoin="round"></path>
                <path d="M0.0792939264,17.8821603 C0.0792939264,15.7268956 1.81846475,13.9787779 3.96269887,13.9787779 L46.6782952,13.9787779 C48.8225293,13.9787779 50.5598421,15.7268956 50.5598421,17.8821603 L50.5598421,48.1324397 C50.5598421,50.2877044 48.8225293,52.0358221 46.6782952,52.0358221 L33.0863779,52.0358221 L33.0863779,56.3482191 C33.0863779,57.2614985 32.5400999,58.0832632 31.702102,58.4325132 C30.862246,58.7817632 29.897898,58.5875279 29.2568575,57.9431897 L23.3778655,52.0358221 L3.96269887,52.0358221 C1.81846475,52.0358221 0.0792939264,50.2877044 0.0792939264,48.1324397 L0.0792939264,17.8821603 Z" id="Fill-19" fill="#FFFFFF"></path>
                <path d="M0.0792939264,17.8821603 C0.0792939264,15.7268956 1.81846475,13.9787779 3.96269887,13.9787779 L46.6782952,13.9787779 C48.8225293,13.9787779 50.5598421,15.7268956 50.5598421,17.8821603 L50.5598421,48.1324397 C50.5598421,50.2877044 48.8225293,52.0358221 46.6782952,52.0358221 L33.0863779,52.0358221 L33.0863779,56.3482191 C33.0863779,57.2614985 32.5400999,58.0832632 31.702102,58.4325132 C30.862246,58.7817632 29.897898,58.5875279 29.2568575,57.9431897 L23.3778655,52.0358221 L3.96269887,52.0358221 C1.81846475,52.0358221 0.0792939264,50.2877044 0.0792939264,48.1324397 L0.0792939264,17.8821603 Z" id="Stroke-21" stroke="#4550E6" stroke-width="1.58135191" stroke-linejoin="round"></path>
                <path d="M57.2916967,13.9791515 C57.2916967,21.4516074 51.2640576,27.5102544 43.8298455,27.5102544 C36.3956335,27.5102544 30.3679944,21.4516074 30.3679944,13.9791515 C30.3679944,6.50669559 36.3956335,0.448048529 43.8298455,0.448048529 C51.2640576,0.448048529 57.2916967,6.50669559 57.2916967,13.9791515" id="Fill-23" fill="#FFFFFF"></path>
                <path d="M57.2916967,13.9791515 C57.2916967,21.4516074 51.2640576,27.5102544 43.8298455,27.5102544 C36.3956335,27.5102544 30.3679944,21.4516074 30.3679944,13.9791515 C30.3679944,6.50669559 36.3956335,0.448048529 43.8298455,0.448048529 C51.2640576,0.448048529 57.2916967,6.50669559 57.2916967,13.9791515 Z" id="Stroke-25" stroke="#4550E6" stroke-width="1.58135191" stroke-linecap="round" stroke-linejoin="round"></path>
                <path d="M43.8296597,6.08628824 L43.8296597,12.8527735" id="Stroke-27" stroke="#4550E6" stroke-width="1.58135191" stroke-linecap="round" stroke-linejoin="round"></path>
                <path d="M43.8296597,17.9258632 C42.5903147,17.9258632 41.5850888,18.9362603 41.5850888,20.1819809 C41.5850888,21.4258338 42.5903147,22.4362309 43.8296597,22.4362309 C45.0690048,22.4362309 46.0742306,21.4258338 46.0742306,20.1819809 C46.0742306,18.9362603 45.0690048,17.9258632 43.8296597,17.9258632 M43.8296597,19.7935103 C44.0433399,19.7935103 44.2161421,19.9672015 44.2161421,20.1819809 C44.2161421,20.3948926 44.0433399,20.5685838 43.8296597,20.5685838 C43.6178376,20.5685838 43.4431773,20.3948926 43.4431773,20.1819809 C43.4431773,19.9672015 43.6178376,19.7935103 43.8296597,19.7935103" id="Fill-29" fill="#4550E6"></path>
                <path d="M9.0531181,27.5104412 L30.3691093,27.5104412" id="Stroke-31" stroke="#4550E6" stroke-width="1.58135191" stroke-linecap="round" stroke-linejoin="round"></path>
                <path d="M9.0531181,34.2759926 L38.2213912,34.2759926" id="Stroke-33" stroke="#4550E6" stroke-width="1.58135191" stroke-linecap="round" stroke-linejoin="round"></path>
                <path d="M9.0531181,41.0417309 L38.2213912,41.0417309" id="Stroke-35" stroke="#4550E6" stroke-width="1.58135191" stroke-linecap="round" stroke-linejoin="round"></path>
                <path d="M52.4677273,99.5543662 C52.4677273,100.176293 51.9660434,100.682425 51.3454419,100.682425 C50.7266984,100.682425 50.2231564,100.176293 50.2231564,99.5543662 C50.2231564,98.9324397 50.7266984,98.4263074 51.3454419,98.4263074 C51.9660434,98.4263074 52.4677273,98.9324397 52.4677273,99.5543662" id="Fill-37" fill="#FFFFFF"></path>
                <path d="M52.4677273,99.5543662 C52.4677273,100.176293 51.9660434,100.682425 51.3454419,100.682425 C50.7266984,100.682425 50.2231564,100.176293 50.2231564,99.5543662 C50.2231564,98.9324397 50.7266984,98.4263074 51.3454419,98.4263074 C51.9660434,98.4263074 52.4677273,98.9324397 52.4677273,99.5543662 Z" id="Stroke-39" stroke="#4550E6" stroke-width="1.58135191" stroke-linejoin="round"></path>
            </g>
        </g>
    </g>
</svg>